# xmcd CD database file
#
# Track frame offsets:
#	150
#	10137
#	22320
#	32695
#	42485
#	51182
#	61912
#	73007
#	84522
#	99130
#	110725
#	122322
#	131112
#	139172
#	147700
#	161792
#	175100
#	186595
#	198387
#
# Disc length: 2783 seconds
#
# Revision: 2
# Processed by: cddbd v1.5PL3 Copyright (c) Steve Scherf et al.
# Submitted via: CDex 1.51
#
DISCID=1b0add13
DTITLE=Various Artist - Daffan Records Story, The, #2
DYEAR=1995
DGENRE=Country
TTITLE0=Fidlo - Hopelessly
TTITLE1=Fidlo - Triflin' Heart
TTITLE2=Ted Lee - Who's Getting Your Love
TTITLE3=Ted Lee - The Blues That Way
TTITLE4=William Penix - Dig That Crazy Driver
TTITLE5=William Penix - How Old Do You Get
TTITLE6=William Penix - Teach 'Em How to Swim
TTITLE7=William Penix - Them Old Blues Got Me
TTITLE8=Margaret Elliot - Ride the Waves of Love
TTITLE9=Margaret Elliott - The Last Call
TTITLE10=Johnny Bundrick - Strange Love
TTITLE11=Johnny Bundrick - Made in Japan
TTITLE12=Margaret Elliott - This Wallflower's Gonna Bloom
TTITLE13=Margaret Elliott - What's Her Name
TTITLE14=Pickering Bros - The Cold Grey Walls of Yesterday
TTITLE15=Pickering Bros - Please Come Back to Me
TTITLE16=Pickering Bros - The Surviving Half of the Love Affair
TTITLE17=Pickering Bros - Lady Luck, My Love
TTITLE18=Pickering Bros - Letter from Nashville
EXTD=Volume 2 of a 2-CD set. YEAR: 1995
EXTT0=
EXTT1=
EXTT2=
EXTT3=
EXTT4=
EXTT5=
EXTT6=
EXTT7=
EXTT8=
EXTT9=
EXTT10=
EXTT11=
EXTT12=
EXTT13=
EXTT14=
EXTT15=
EXTT16=
EXTT17=
EXTT18=
PLAYORDER=
